<?xml version="1.0" encoding="UTF-8"?><svg id="Livello_3" xmlns="http://www.w3.org/2000/svg" xmlns:xlink="http://www.w3.org/1999/xlink" viewBox="0 0 1000 1000"><defs><radialGradient id="Sfumatura_senza_nome_78" cx="799.87" cy="241.43" fx="799.87" fy="241.43" r="73.71" gradientUnits="userSpaceOnUse"><stop offset="0" stop-color="#fcf4cd"/><stop offset="1" stop-color="#81c2c1"/></radialGradient><linearGradient id="Sfumatura_senza_nome_20" x1="768.27" y1="484.96" x2="768.27" y2="370.9" gradientTransform="translate(-8.16 -18.33)" gradientUnits="userSpaceOnUse"><stop offset="0" stop-color="#62a5f8" stop-opacity="0"/><stop offset=".12" stop-color="#61a5f8" stop-opacity=".02"/><stop offset=".25" stop-color="#61a5f8" stop-opacity=".07"/><stop offset=".37" stop-color="#61a5f8" stop-opacity=".15"/><stop offset=".5" stop-color="#60a5f9" stop-opacity=".26"/><stop offset=".63" stop-color="#5fa5f9" stop-opacity=".41"/><stop offset=".77" stop-color="#5fa5fa" stop-opacity=".59"/><stop offset=".9" stop-color="#5da5fb" stop-opacity=".81"/><stop offset="1" stop-color="#5da5fc"/></linearGradient><radialGradient id="Sfumatura_senza_nome_261" cx="570.92" cy="251.53" fx="570.92" fy="251.53" r="71.9" gradientUnits="userSpaceOnUse"><stop offset="0" stop-color="#fff"/><stop offset=".29" stop-color="#fdf7de"/><stop offset=".77" stop-color="#faecae"/><stop offset="1" stop-color="#f9e89c"/></radialGradient><linearGradient id="Sfumatura_senza_nome_23" x1="715.2" y1="738.42" x2="715.2" y2="552.63" gradientUnits="userSpaceOnUse"><stop offset="0" stop-color="#6781bb" stop-opacity="0"/><stop offset=".14" stop-color="#6781bb" stop-opacity=".02"/><stop offset=".29" stop-color="#6781bb" stop-opacity=".09"/><stop offset=".44" stop-color="#6781bb" stop-opacity=".2"/><stop offset=".59" stop-color="#6781bb" stop-opacity=".36"/><stop offset=".74" stop-color="#6781bb" stop-opacity=".56"/><stop offset=".89" stop-color="#6781bb" stop-opacity=".8"/><stop offset="1" stop-color="#6781bb"/></linearGradient><linearGradient id="Sfumatura_senza_nome_20-2" x1="629.56" y1="553.32" x2="629.56" y2="472.63" xlink:href="#Sfumatura_senza_nome_20"/><linearGradient id="Sfumatura_senza_nome_265" x1="545.32" y1="818.46" x2="545.32" y2="560.29" gradientUnits="userSpaceOnUse"><stop offset="0" stop-color="#f9e89c" stop-opacity="0"/><stop offset=".13" stop-color="#f9e69b" stop-opacity=".01"/><stop offset=".26" stop-color="#f9e298" stop-opacity=".06"/><stop offset=".38" stop-color="#f9dc94" stop-opacity=".14"/><stop offset=".51" stop-color="#fad38e" stop-opacity=".24"/><stop offset=".63" stop-color="#fbc786" stop-opacity=".38"/><stop offset=".75" stop-color="#fcb97c" stop-opacity=".54"/><stop offset=".87" stop-color="#fda871" stop-opacity=".74"/><stop offset=".98" stop-color="#fe9464" stop-opacity=".97"/><stop offset="1" stop-color="#ff9263"/></linearGradient><radialGradient id="Sfumatura_senza_nome_237" cx="527.16" cy="539.05" fx="527.16" fy="539.05" r="48.65" gradientUnits="userSpaceOnUse"><stop offset="0" stop-color="#f9e89c"/><stop offset="1" stop-color="#de4e12"/></radialGradient></defs><path d="M148.22,216.9c-32.49,87.37,51.74,139.81,15.96,270.02-30.2,109.92-105.62,128.58-127.7,234.49-17.77,85.23,11.96,164.84,38.57,217.25H955.63c13.01-29.33,28.01-74.12,25.27-127.72-2.98-58.4-25.1-89.69-39.9-127.9-51.9-133.95,38.95-216.42,10.64-341.07-25.28-111.33-126.87-173.7-179.57-206.07C544.77-3.67,204.79,64.76,148.22,216.9Z" fill="#eff6ff"/><g><path d="M857.89,149.02c-16.89-47.01-61.85-80.64-114.68-80.64-3.19,0-6.35,.12-9.48,.36-30.96-28.58-72.33-46.06-117.79-46.06-78.83,0-145.39,52.52-166.62,124.48-44.99,18.72-76.63,63.09-76.63,114.86,0,68.68,55.67,124.35,124.35,124.35,6.46,0,12.81-.49,19.01-1.45,34.05,35.49,81.94,57.58,135,57.58s102.62-22.88,136.77-59.46c9.12,2.17,18.63,3.32,28.41,3.32,67.56,0,122.32-54.76,122.32-122.32,0-52.93-33.61-98-80.66-115.04Z" fill="#fff"/><path d="M857.89,149.02c-16.89-47.01-61.85-80.64-114.68-80.64-3.19,0-6.35,.12-9.48,.36-30.96-28.58-72.33-46.06-117.79-46.06-78.83,0-145.39,52.52-166.62,124.48-44.99,18.72-76.63,63.09-76.63,114.86,0,68.68,55.67,124.35,124.35,124.35,6.46,0,12.81-.49,19.01-1.45,34.05,35.49,81.94,57.58,135,57.58s102.62-22.88,136.77-59.46c9.12,2.17,18.63,3.32,28.41,3.32,67.56,0,122.32-54.76,122.32-122.32,0-52.93-33.61-98-80.66-115.04Z" fill="none" stroke="#5da5fc" stroke-miterlimit="10" stroke-width="2"/></g><circle cx="827.38" cy="273.62" r="53.76" fill="url(#Sfumatura_senza_nome_78)"/><g><rect x="715.2" y="352.57" width="89.83" height="114.06" fill="url(#Sfumatura_senza_nome_20)" opacity=".3"/><g><rect x="715.2" y="287.47" width="89.83" height="69.1" fill="#9ec9fd"/><rect x="770.47" y="287.47" width="34.55" height="69.1" fill="#5da5fc"/></g></g><g><rect x="685.14" y="126.87" width="116.15" height="89.35" transform="translate(37.77 461.61) rotate(-35.35)" fill="#f9e89c"/><rect x="750.03" y="106.19" width="44.67" height="89.35" transform="translate(55.11 474.67) rotate(-35.35)" fill="#eb9571"/></g><g><polygon points="633.27 190.2 635.95 88.65 611.23 72.81 564.32 146.04 633.27 190.2" fill="#81c2c1"/><polygon points="611.23 72.82 520.1 117.71 608.55 174.36 611.23 72.82" fill="#c0e0e0"/></g><g><polygon points="460.43 272.63 561.29 287.55 575.16 267.08 499.12 215.54 460.43 272.63" fill="#2949fa"/><polygon points="575.16 267.08 523.94 178.92 474.3 252.16 575.16 267.08" fill="#94a4fd"/></g><circle cx="597.76" cy="282.93" r="52.44" fill="url(#Sfumatura_senza_nome_261)"/><g><rect x="675.2" y="552.63" width="79.98" height="185.79" fill="url(#Sfumatura_senza_nome_23)" opacity=".2"/><rect x="675.2" y="492.91" width="79.98" height="61.53" fill="#c2cde4"/><rect x="722.04" y="492.91" width="33.15" height="61.53" fill="#6781bb"/></g><g><rect x="578.02" y="454.3" width="86.74" height="80.69" fill="url(#Sfumatura_senza_nome_20-2)" opacity=".3"/><rect x="578.02" y="381.89" width="86.74" height="72.41" fill="#5da5fc"/><rect x="637.48" y="381.89" width="27.28" height="72.41" fill="#2949fa"/></g><g><rect x="509.84" y="560.29" width="70.96" height="258.17" fill="url(#Sfumatura_senza_nome_265)" opacity=".6"/><circle cx="545.32" cy="560.29" r="35.48" fill="url(#Sfumatura_senza_nome_237)"/></g><g><path d="M394.96,604.1s42.8,13.27,50.91,21.84c8.11,8.57-1.57,127.78-1.2,135.54s16.03,95.05,10.29,108.12c-5.74,13.07-37.04,27.31-51.01,26.7-13.97-.6-15.81-89.95-14.93-124.52,.88-34.57,9.95-83.72,9.01-104.12-.94-20.4-6.85-62.1-3.06-63.56Z" fill="#2949fa" stroke="#090097" stroke-linecap="round" stroke-linejoin="round"/><path d="M471.89,880.88c-10.71-11.97-24.46-29.56-40.5-28.8-30.4-.32-55.42,23.84-56.17,54.23-1.17,33.55,22.42,40.85,44.27,40.54s68.28-9.8,52.4-65.97Z" fill="#2949fa" stroke="#090097" stroke-linecap="round" stroke-linejoin="round"/><path d="M491.59,883.99s-35.74-9.7-60-1.74c-24.25,7.97-36.82,15.83-39.06,38.86-2.25,23.03,38.55,17.31,60.25,15.78,21.7-1.53,72.1-45.96,72.1-45.96l-33.29-6.94Z" fill="#fff" stroke="#090097" stroke-linecap="round" stroke-linejoin="round"/><path d="M467.65,904.73c-5.11-13.94,11.13-25.53,11.13-25.53l-10.21-19s7.51-9.04,15.32,2.35c7.81,11.39,14.35,20.43,19.4,16.34s-4.14-21.65-4.14-21.65c1.84-3.17,5.9-4.26,9.07-2.42,1,.58,1.84,1.41,2.42,2.42,6.48,7.61,9.19,19.05,16.85,20.43,7.66,1.38,26.45-27.22,31.61-23.44,5.16,3.78,0,12.77-6.13,19.25-2.82,3.29-6.3,5.95-10.21,7.81,0,0,30.64-17.05,44.37-23.64,13.74-6.59,19-10.21,21.65-2.86,2.66,7.35-30.33,19.61-48.1,27.52s-51.98,24.97-65.97,30.28c-6.07,2.72-12.5,4.52-19.1,5.36" fill="#fff" stroke="#090097" stroke-linecap="round" stroke-linejoin="round"/><path d="M278.63,570.66c-56.86-.23-144.07,26.42-144.07,36.63s-1.17,278.34-.87,300.45c.31,22.11,30.33,37.89,70.52,48.41,40.19,10.52,132.76,7.46,152.32,.36,19.56-7.1,45.96-14.25,49.02-27.06,3.06-12.82-1.23-127.99-.66-149.28,.56-21.29,14.71-165.11,0-174.25-14.71-9.14-69.39-35.02-126.26-35.25Z" fill="#2949fa" stroke="#090097" stroke-linecap="round" stroke-linejoin="round"/><path d="M266.44,468.9s-4.28,87.13-5.61,106.08,35.38,61.79,59.42,64.81,15.42-88.75,15.42-88.75l-69.24-82.15Z" fill="#fff" stroke="#090097" stroke-linecap="round" stroke-linejoin="round"/><path d="M382.33,363.37c-81.14-43.01-136.78,1.33-158.84,43.45s20.62,78.12,17.67,98.45,20.6,34.8,22.12,36.78c.78-11.86,5.12-56.31,2.49-65.34,29.43,5.71,108.56-6.7,118.88-11.81,32.26-15.96,26.26-86.39-2.33-101.54Z" fill="#090097" stroke="#090097" stroke-linecap="round" stroke-linejoin="round"/><path d="M302.18,547.71c7.24,10.64,19.37,19.62,39.24,22.94s31.35-22.49,39.39-45.55,15.14-52.04,6.83-85.03c-3.92-15.55-11.31-19.07-11.31-19.07,0,0-26.98,5.28-38.41,9.62s-35.42-7.85-49.05,1.68-1.66,37.47-20.51,45.21" fill="#fff" stroke="#090097" stroke-linecap="round" stroke-linejoin="round"/><path d="M268.38,477.53s1.39-29.82-16.35-23.1c-11.54,4.37-8.23,24.78-.06,39.18,8.17,14.4,14.63,1.49,14.63,1.49" fill="#fff" stroke="#090097" stroke-linecap="round" stroke-linejoin="round"/><path d="M334.96,450.91s-17.51-4.85-25.53,6.13" fill="none" stroke="#090097" stroke-linecap="round" stroke-linejoin="round"/><path d="M361.76,453.69s15.83-11.13,21.85,4.75" fill="#fff" stroke="#090097" stroke-linecap="round" stroke-linejoin="round"/><path d="M355.82,466.63s1.84,32.46,1.08,40.23-17.36,7.05-18.1,1.07" fill="none" stroke="#090097" stroke-linecap="round" stroke-linejoin="round"/><path d="M322.19,519.45s1.99,16.76,21.89,16.29" fill="none" stroke="#090097" stroke-linecap="round" stroke-linejoin="round"/><path d="M330.87,472c0,4.44-1.84,8.02-4.24,8.07s-4.39-3.52-4.49-7.91,1.84-8.02,4.29-8.07,4.39,3.52,4.44,7.91Z" fill="#090097"/><path d="M377.67,470.26c0,4.39-1.84,8.02-4.24,8.02s-4.44-3.47-4.49-7.91,1.84-8.02,4.24-8.02,4.44,3.68,4.49,7.91Z" fill="#090097"/><path d="M155.81,609.38c-9.95-7.2-20.03-9.25-29.78-1.78-16.44,13.02-28.64,206.85-30.83,232.43-2.2,25.58-4.49,40.85-4.49,40.85l96.61-26.86s4.2-45.61,10.19-101.72-10.04-89.2-10.04-89.2" fill="#2949fa" stroke="#090097" stroke-linecap="round" stroke-linejoin="round"/><path d="M73.75,856.68s13.58,58.52,25.12,62.19,92.68-37.02,92.47-51.06c-.2-14.04,16.14-32.17-1.74-31.91s-104.63,1.48-115.86,20.78Z" fill="#2949fa" stroke="#090097" stroke-linecap="round" stroke-linejoin="round"/><path d="M349.28,840.03s-167.03,16.39-197.51,27.01c-30.48,10.62-63.27,39.22-59.33,49.38s29.77,26.4,42.54,26.2c12.77-.2,31.81-8.12,35.74-8.17s168.86-66.38,172.64-67.5,29.31-4.29,40.85-9.55c11.54-5.26,28.44-22.11,28.44-22.11,0,0,63.37,0,69.75-2.86,6.38-2.86,11.28-10.21-10.47-14.76-21.75-4.54-31.71-13.48-45.96-13.28-14.25,.2-76.7,35.64-76.7,35.64Z" fill="#fff" stroke="#090097" stroke-linecap="round" stroke-linejoin="round"/><path d="M404.89,826.04c5.42-2.79,11.57-3.85,17.62-3.01,16.96,2.54,33.79,5.95,50.4,10.21" fill="none" stroke="#090097" stroke-linecap="round" stroke-linejoin="round"/><path d="M418.63,813.63c4.99-2.19,10.57-2.6,15.83-1.17,7.46,2.71,50.4,12.31,51.37,15.32" fill="none" stroke="#090097" stroke-linecap="round" stroke-linejoin="round"/><rect x="355.22" y="846.97" width="353.61" height="12.77" transform="translate(-12.01 7.61) rotate(-.81)" fill="#090097" stroke="#090097" stroke-linecap="round" stroke-linejoin="round" stroke-width="1"/><polygon points="756.76 671.64 558.77 671.64 511.56 860 709.55 860 756.76 671.64" fill="#bfc8fe" stroke="#090097" stroke-linecap="round" stroke-linejoin="round"/></g><rect x="15" y="935.97" width="970" height="30" fill="#090097" stroke="#090097" stroke-linecap="round" stroke-linejoin="round" stroke-width="1"/></svg>