<?xml version="1.0" encoding="utf-8"?>
<!-- Generator: Adobe Illustrator 27.0.0, SVG Export Plug-In . SVG Version: 6.00 Build 0)  -->
<svg version="1.1" id="Livello_3" xmlns="http://www.w3.org/2000/svg" xmlns:xlink="http://www.w3.org/1999/xlink" x="0px" y="0px"
     viewBox="0 0 1000 1000" style="enable-background:new 0 0 1000 1000;" xml:space="preserve">
<style type="text/css">
	.st0{fill:#EFF6FF;}
	.st1{fill:none;stroke:#BEDBFE;stroke-linecap:round;stroke-linejoin:round;}
	.st2{fill:#FFFFFF;stroke:#242B5D;stroke-linecap:round;stroke-linejoin:round;}
	.st3{fill:#242B5D;stroke:#242B5D;stroke-linecap:round;stroke-linejoin:round;}
	.st4{fill:#242B5D;}
	.st5{fill:none;stroke:#242B5D;stroke-linecap:round;stroke-linejoin:round;}
	.st6{fill:#BFC8FE;}
	.st7{opacity:0.2;fill:#2949FA;enable-background:new    ;}
	.st8{clip-path:url(#SVGID_00000086661008117102925390000005234638175905782427_);}
	.st9{opacity:0.2;}
	.st10{opacity:0.3;fill:#2949FA;enable-background:new    ;}
	.st11{fill:none;stroke:#242B5D;stroke-width:3;stroke-linecap:round;stroke-linejoin:round;}
	.st12{clip-path:url(#SVGID_00000023994889800357502800000007913267455606493107_);}
	.st13{fill:none;stroke:#FFFFFF;stroke-linecap:round;stroke-linejoin:round;}
	.st14{fill:none;stroke:#FFFFFF;stroke-miterlimit:10;}
	.st15{fill:#BFC8FE;stroke:#242B5D;stroke-linecap:round;stroke-linejoin:round;}
</style>
    <path class="st0" d="M925.7,698.5c-48.3,28.8-93.8,24.4-203.5,45c-63.5,12-113.6,60.1-162.6,108.1c-18.6,18.2-37.1,36.4-56.2,52.7
	c-3,2.5-6,5-9,7.5c-14.1,11.4-28.5,21.5-43.6,29.7c-2,1.1-3.9,2.1-5.9,3.1c-147.4,73.3-264.7-35.3-371.7-198.6
	C1.5,636.6,2.7,486,79.7,396.6c64.5-75,86.1-56.2,209.5-139.1c133.1-89.3,114.5-190,222.9-232.8c118.7-46.9,219.6,12.9,239.1,23.9
	l0,0C1013.7,196.1,1035.4,633,925.7,698.5z"/>
    <path class="st1" d="M170.6,289.5l-89.5-51.7V134.4l89.5-51.7l89.5,51.7v103.4L170.6,289.5L170.6,289.5z M260.1,237.8l-89.5-51.7
	L81,237.8 M170.6,186.1V82.7"/>
    <path class="st1" d="M155.5,882.7l15.1,56.3l-41.2,41.2L73.1,965l-15.1-56.3l41.2-41.2L155.5,882.7L155.5,882.7z M99.2,867.6
	l15.1,56.3l56.3,15.1 M114.3,923.8L73.1,965"/>
    <path class="st1" d="M227.4,597.5l66.9,38.6v77.3L227.4,752l-66.9-38.6v-77.3L227.4,597.5L227.4,597.5z M160.4,636.1l66.9,38.6
	l66.9-38.6 M227.4,674.7V752"/>
    <path class="st1" d="M720.5,206.5l33-57.1h65.9l33,57.1l-33,57.1h-65.9L720.5,206.5L720.5,206.5z M753.4,263.6l33-57.1l-33-57.1
	 M786.4,206.5h65.9"/>
    <path class="st1" d="M708.2,647.2l-28.6-106.7l78.1-78.1l106.7,28.6l28.6,106.7L815,675.7L708.2,647.2L708.2,647.2z M815,675.8
	L786.4,569l-106.7-28.6 M786.4,569l78.1-78.1"/>
    <path class="st1" d="M879.7,812.3L907,913.9l-74.3,74.3L731,961l-27.2-101.6l74.3-74.3L879.7,812.3z M778.2,785.1l27.2,101.6
	L907,913.9 M805.4,886.7L731,961"/>
    <g>
	<path class="st2" d="M425,288.8c0,0-3.4-16.2-14.8-16.2s-14.3,12.5-7.2,26.8c7.1,14.3,27.4,23.3,28.6,14.9
		C432.9,305.9,425,288.7,425,288.8L425,288.8z"/>
        <path class="st3" d="M602.3,224c0,0,4.9,16.5,0,32.2c-2.7,8.9-6.9,17.3-12.4,24.7v-47L602.3,224L602.3,224z"/>
        <path class="st4" d="M597.5,632l-1.8,5.3c0,0-11.6,102.6-21.4,151.7c-6.6,32.8-11.9,52.8-14.8,62.5c-18.6,18.2-37.1,36.4-56.2,52.7
		l-2.2-162.6l-2.2-0.2l-2.3,0.2l-2.3,170.1c-14.1,11.4-28.5,21.5-43.6,29.7c-2-18.1-3.3-40.7-6.7-51.5c-2.8-10.2-4-20.7-3.6-31.2
		c0,0-7.2-20.5-17-69.6c-9.7-49.1-21.4-151.7-21.4-151.7l-1.8-5.3l98.6,9.6l0,0L597.5,632z"/>
        <path class="st5" d="M597.5,632l-1.8,5.3c0,0-11.6,102.6-21.4,151.7c-6.6,32.8-11.9,52.8-14.8,62.5c-18.6,18.2-37.1,36.4-56.2,52.7
		l-2.2-162.6l-2.2-0.2l-2.3,0.2l-2.3,170.1c-14.1,11.4-28.5,21.5-43.6,29.7c-2-18.1-3.3-40.7-6.7-51.5c-2.8-10.2-4-20.7-3.6-31.2
		c0,0-7.2-20.5-17-69.6c-9.7-49.1-21.4-151.7-21.4-151.7l-1.8-5.3l98.6,9.6l0,0L597.5,632z"/>
        <path class="st2" d="M572.6,339.5c0,0-42.8-8-68.7-8S436,345.7,436,345.7L463.8,649c0,0,16,7,44.6,7s55.3-13.4,55.3-13.4
		L572.6,339.5L572.6,339.5z"/>
        <ellipse class="st2" cx="510.4" cy="394.1" rx="56" ry="55.2"/>
        <ellipse class="st2" cx="510.4" cy="394.1" rx="42.3" ry="41.7"/>
        <path class="st6" d="M655.7,465.7c0,0,185.4,62.1,208.6,25.3c12.5-19.9-38.5-52.8-70.7-63.5c-32.2-10.7-121.7-53-121.7-53"/>
        <path class="st7" d="M811.4,477.3c-26.1,0-127.7-23.8-152.5-29.6l-3.2,18c0,0,185.4,62.1,208.6,25.3c0.7-1.1,1.2-2.3,1.5-3.6
		C848.3,481.1,830,477.7,811.4,477.3L811.4,477.3z"/>
        <path class="st5" d="M655.7,465.7c0,0,185.4,62.1,208.6,25.3c12.5-19.9-38.5-52.8-70.7-63.5c-32.2-10.7-121.7-53-121.7-53"/>
        <path class="st6" d="M672.6,438.2l-51.8,234.8L542,692.8l6.5-173.5l11.9-155.6l4.7-29.2c0,0,106.1,36.4,113.8,41.7
		c7.7,5.4,4.7,35.1,4.7,35.1"/>
        <path class="st7" d="M665.9,468.7l-85.3,162.2c0,0,17.7-66.3,16.6-74c-0.6-4.5-28.1,11.8-50.9,26.3L542,692.8l78.7-19.7
		L665.9,468.7L665.9,468.7z"/>
        <path class="st7" d="M579.4,343.3c0,0,27.6,19.9,24.3,64.1c-3.3,44.2-13.3,37.6-13.3,37.6s6.6,9.9,0,11s-18.7-19.9-21.1-14.4
		c-2.3,5.5-15.5,12.1-15.5,12.1l4.3-89.2C558.2,364.5,561.7,340.9,579.4,343.3L579.4,343.3z"/>
        <path class="st5" d="M605.9,374.9c0,0,9.4,23.4,3.7,56.8"/>
        <path class="st5" d="M616.4,410.7c0,0,4.3,9.2-10.5,46.3"/>
        <path class="st5" d="M636.2,549.5c0,0-34,66-70.3,93.8"/>
        <path class="st5" d="M595.4,584c0,0-4.3,7.4-24,22.9"/>
        <path class="st5" d="M672.6,438.2l-51.8,234.8L542,692.8l6.5-173.5l11.9-155.6l4.7-29.2c0,0,106.1,36.4,113.8,41.7
		c7.7,5.4,4.7,35.1,4.7,35.1"/>
        <path class="st6" d="M575.4,332.8c4,8,6.2,16.7,6.6,25.6c0,13.1,0.6,45.3,3.6,60.2c3,14.9,12.5,32.2,9.5,31.6s-6.5-8.4-14.3-17.3
		s-10.1-23.3-14.3-20.3c-4.2,3-11.9,28.6-11.9,28.6s1.2-53.6,3-73.9C559.3,347.1,563.5,320.2,575.4,332.8L575.4,332.8z"/>
        <g>
		<defs>
			<path id="SVGID_1_" d="M575.4,332.8c4,8,6.2,16.7,6.6,25.6c0,13.1,0.6,45.3,3.6,60.2c3,14.9,12.5,32.2,9.5,31.6
				s-6.5-8.4-14.3-17.3s-10.1-23.3-14.3-20.3c-4.2,3-11.9,28.6-11.9,28.6s1.2-53.6,3-73.9C559.3,347.1,563.5,320.2,575.4,332.8
				L575.4,332.8z"/>
		</defs>
            <clipPath id="SVGID_00000038383032283123066010000012480327841193893043_">
			<use xlink:href="#SVGID_1_"  style="overflow:visible;"/>
		</clipPath>
            <g style="clip-path:url(#SVGID_00000038383032283123066010000012480327841193893043_);">
			<g class="st9">
				<path class="st10" d="M575.4,332.8c4,8,6.2,16.7,6.6,25.6c0,13.1,0.6,45.3,3.6,60.2c3,14.9,12.5,32.2,9.5,31.6
					s-6.5-8.4-14.3-17.3s-10.1-23.3-14.3-20.3c-4.2,3-11.9,28.6-11.9,28.6s1.2-53.6,3-73.9C559.3,347.1,563.5,320.2,575.4,332.8
					L575.4,332.8z"/>
			</g>
		</g>
	</g>
        <path class="st5" d="M575.4,332.8c4,8,6.2,16.7,6.6,25.6c0,13.1,0.6,45.3,3.6,60.2c3,14.9,12.5,32.2,9.5,31.6s-6.5-8.4-14.3-17.3
		s-10.1-23.3-14.3-20.3c-4.2,3-11.9,28.6-11.9,28.6s1.2-53.6,3-73.9C559.3,347.1,563.5,320.2,575.4,332.8L575.4,332.8z"/>
        <path class="st6" d="M335.2,384.7c0,0-74.2,123.5-85.8,149s-27.4,49.1-23.1,59.6c4.3,10.5,16.4,18.2,40.1,17s99.8-133.2,99.8-133.2
		L335.2,384.7L335.2,384.7z"/>
        <path class="st7" d="M304.3,573.3c22-29.6,45.9-69.1,56.5-86.9l-12.2-32.4l-71.9,132.6L304.3,573.3L304.3,573.3z"/>
        <polyline class="st5" points="323.9,439.6 356,495.8 321.5,468 	"/>
        <path class="st5" d="M265.9,541.4c0,0,23.4,11.7,33.3,34"/>
        <path class="st5" d="M286.3,539.6c0,0,10.5,12.3,14.2,25.9"/>
        <path class="st5" d="M335.2,384.7c0,0-74.2,123.5-85.8,149s-27.4,49.1-23.1,59.6c4.3,10.5,16.4,18.2,40.1,17s99.8-133.2,99.8-133.2
		L335.2,384.7L335.2,384.7z"/>
        <path class="st6" d="M344.1,438.2L396,673.1l78.7,19.7l-6.5-173.5l-11.9-155.6l-4.7-29.2c0,0-106.2,36.4-114,41.7
		c-7.8,5.4-4.7,35.1-4.7,35.1"/>
        <polygon class="st7" points="396,673.1 474.6,692.8 471.4,605.8 368.7,549.6 	"/>
        <path class="st5" d="M381.9,555.1c0,0,21.1,27.8,44.5,43.8"/>
        <path class="st7" d="M434.7,422.1c0,0-14.3,28.7-6.6,29.8c7.7,1.1,14.5-29.1,24.3-19.9l9.8,9.4l-8.7-54.6
		C444.2,396.8,437.8,408.9,434.7,422.1L434.7,422.1z"/>
        <path class="st5" d="M430,345.9c0,0-15.4,44.5-11.1,82.1"/>
        <path class="st5" d="M412.1,371.1c0,0-7.4,38.9,0.6,60.5"/>
        <path class="st5" d="M344.1,438.2L396,673.1l78.7,19.7l-6.5-173.5l-11.9-155.6l-4.7-29.2c0,0-106.2,36.4-114,41.7
		c-7.8,5.4-4.7,35.1-4.7,35.1"/>
        <path class="st6" d="M441.3,332.8c-4,8-6.2,16.7-6.5,25.6c0,13.1-0.6,45.3-3.6,60.2s-12.5,32.2-9.5,31.6s6.5-8.4,14.3-17.3
		c7.7-8.9,10.1-23.3,14.3-20.3s11.9,28.6,11.9,28.6s-1.2-53.6-3-73.9S453.2,320.2,441.3,332.8L441.3,332.8z"/>
        <path class="st10" d="M445.5,358.3c0,0-7.1,23.7-1.2,39c5.9,15.3,17.1,37.8,17.1,37.8l-2.3-67.9L445.5,358.3z"/>
        <path class="st5" d="M441.3,332.8c-4,8-6.2,16.7-6.5,25.6c0,13.1-0.6,45.3-3.6,60.2s-12.5,32.2-9.5,31.6s6.5-8.4,14.3-17.3
		c7.7-8.9,10.1-23.3,14.3-20.3s11.9,28.6,11.9,28.6s-1.2-53.6-3-73.9S453.2,320.2,441.3,332.8L441.3,332.8z"/>
        <path class="st2" d="M423.5,246.2c0,0,0,51.1,6.6,80.8c6.6,29.7,19.8,54.4,53.5,68.4c33.8,14,74.2-4.1,91.5-25.5
		s15.7-81.6,15.7-94.8s0.8-55.2,0.8-55.2s-6.6-19.8-35.4-38.7c-28.8-19-57.7-28.1-93.9-5.8S423.5,246.3,423.5,246.2L423.5,246.2z"/>
        <line class="st5" x1="539.8" y1="299.8" x2="558.5" y2="299.2"/>
        <path class="st5" d="M525.9,346.6c0,0,2.7-9.8,17.2-12.1"/>
        <path class="st2" d="M511.4,301.5v12.8c3.2,2.5,5.2,6.4,5.2,10.5c0.6,7.6-6.2,11.6-12.7,6.6"/>
        <path class="st4" d="M471.6,294.2h-2c-3.2,0-5.9-2.6-5.9-5.9h13.7C477.5,291.6,474.9,294.2,471.6,294.2L471.6,294.2z"/>
        <line class="st5" x1="457.9" y1="288" x2="483.7" y2="288"/>
        <line class="st5" x1="457.9" y1="292.8" x2="483.7" y2="292.8"/>
        <path class="st4" d="M551.7,287.6c0,4.3-1.8,7.8-4.1,7.8s-4.1-3.5-4.1-7.8s1.8-7.8,4.1-7.8S551.7,283.3,551.7,287.6z"/>
        <path class="st11" d="M521.2,264.8c0,0,15.5-8.9,54.2-3.6"/>
        <path class="st11" d="M492.5,260c-9.8-15.7-26.8-25.6-45.3-26.2"/>
        <path class="st4" d="M617.2,167.1c-10.7-22.2-48.6-56.8-87.4-58.5c-33.1-1.4-44.5,11-47.1,14.7c-1.5-1.1-23.7-16.4-61.3,2.3
		c-0.6,0.3-0.8,1-0.5,1.6c0.2,0.4,0.6,0.6,1,0.6c0.2,0,0.4,0,0.5-0.1c27.7-13.9,47-8.3,54.9-4.7c-5-0.9-14.2-1.2-27.4,2.9
		c-21.4,6.6-44.5,28.8-50.2,67.6s12.4,71.7,19,78.3c6.6,6.6,7.4,20.6,7.4,20.6l-1.7-42.9c0,0-0.8-3.3,9.1-9.9
		c8.1-5.4,43.8-41.7,56-54.3c2.2,11.7,8.2,34.6,23.1,50.1c0.2,0.2,0.5,0.4,0.8,0.4s0.6-0.1,0.8-0.3c0.5-0.4,0.5-1.2,0-1.6
		c0,0,0,0,0,0c-15.2-15.9-20.9-39.8-22.8-50.6l2.1-2.2c0,0,9.9,27.2,26.4,41.2c16.5,14,37.9,25.6,71.7,14.8s46.1-26.4,46.1-26.4
		S627.9,189.4,617.2,167.1L617.2,167.1z"/>
        <g>
		<g>
			<defs>
				<path id="SVGID_00000041994410776766843630000010353515224890740374_" d="M617.2,167.1c-10.7-22.2-48.6-56.8-87.4-58.5
					c-33.1-1.4-44.5,11-47.1,14.7c-1.5-1.1-23.7-16.4-61.3,2.3c-0.6,0.3-0.8,1-0.5,1.6c0.2,0.4,0.6,0.6,1,0.6c0.2,0,0.4,0,0.5-0.1
					c27.7-13.9,47-8.3,54.9-4.7c-5-0.9-14.2-1.2-27.4,2.9c-21.4,6.6-44.5,28.8-50.2,67.6s12.4,71.7,19,78.3
					c6.6,6.6,7.4,20.6,7.4,20.6l-1.7-42.9c0,0-0.8-3.3,9.1-9.9c8.1-5.4,43.8-41.7,56-54.3c2.2,11.7,8.2,34.6,23.1,50.1
					c0.2,0.2,0.5,0.4,0.8,0.4s0.6-0.1,0.8-0.3c0.5-0.4,0.5-1.2,0-1.6c0,0,0,0,0,0c-15.2-15.9-20.9-39.8-22.8-50.6l2.1-2.2
					c0,0,9.9,27.2,26.4,41.2c16.5,14,37.9,25.6,71.7,14.8s46.1-26.4,46.1-26.4S627.9,189.4,617.2,167.1L617.2,167.1z"/>
			</defs>
            <clipPath id="SVGID_00000031201447084451198630000015626751967552706718_">
				<use xlink:href="#SVGID_00000041994410776766843630000010353515224890740374_"  style="overflow:visible;"/>
			</clipPath>
            <g style="clip-path:url(#SVGID_00000031201447084451198630000015626751967552706718_);">
				<g>
					<path class="st13" d="M578.9,208.3c55.9,7.7,66.2-3.7,66.2-3.7"/>
                    <path class="st13" d="M496.6,147.2c0,0,17.7,39.8,59.9,55.6"/>
                    <path class="st13" d="M495.4,133.2c0,0,67.9,31.5,94.8,32.8c26.9,1.2,30.4-4.7,30.4-4.7"/>
                    <path class="st13" d="M482.5,149.5c0,0-50.3,26.9-64.3,57.3s-8.2,51.5-8.2,51.5"/>
                    <path class="st13" d="M418.1,157.4c-3.4,2.5-6.5,5.4-9.4,8.5"/>
                    <path class="st13" d="M477.9,140.2c-17.7-0.8-35.3,3.2-51,11.5"/>
				</g>
			</g>
		</g>
            <path class="st14" d="M617.2,167.1c-10.7-22.2-48.6-56.8-87.4-58.5c-33.1-1.4-44.5,11-47.1,14.7c-1.5-1.1-23.7-16.4-61.3,2.3
			c-0.6,0.3-0.8,1-0.5,1.6c0.2,0.4,0.6,0.6,1,0.6c0.2,0,0.4,0,0.5-0.1c27.7-13.9,47-8.3,54.9-4.7c-5-0.9-14.2-1.2-27.4,2.9
			c-21.4,6.6-44.5,28.8-50.2,67.6s12.4,71.7,19,78.3c6.6,6.6,7.4,20.6,7.4,20.6l-1.7-42.9c0,0-0.8-3.3,9.1-9.9
			c8.1-5.4,43.8-41.7,56-54.3c2.2,11.7,8.2,34.6,23.1,50.1c0.2,0.2,0.5,0.4,0.8,0.4s0.6-0.1,0.8-0.3c0.5-0.4,0.5-1.2,0-1.6
			c0,0,0,0,0,0c-15.2-15.9-20.9-39.8-22.8-50.6l2.1-2.2c0,0,9.9,27.2,26.4,41.2c16.5,14,37.9,25.6,71.7,14.8s46.1-26.4,46.1-26.4
			S627.9,189.4,617.2,167.1L617.2,167.1z"/>
	</g>
        <path class="st11" d="M499.2,277.8c-22.9-10.3-49.2-10.3-72.1,0c0,0-6.9,0.7-6.9,6.2s4.8,4.8,4.8,4.8s0.9,26,11.7,33.7
		c9.6,6.9,30.9,8.9,41.9,4.8s17.9-11.7,19.9-18.5C500.6,301.9,499.2,277.8,499.2,277.8L499.2,277.8z"/>
        <path class="st11" d="M515.5,277.8c22.9-10.3,49.2-10.3,72.1,0c0,0,6.9,0.7,6.9,6.2s-4.8,4.8-4.8,4.8s-0.9,26-11.7,33.7
		c-9.6,6.9-30.9,8.9-41.9,4.8c-11-4.1-17.8-11.7-19.9-18.5C514.1,301.8,515.5,277.8,515.5,277.8L515.5,277.8z"/>
        <path class="st11" d="M499.2,277.8c5.2-2.1,11.1-2.1,16.4,0"/>
        <line class="st11" x1="501.3" y1="288.1" x2="513" y2="288.1"/>
        <path class="st5" d="M585.5,288.8c0,0,3.5-16.2,14.8-16.2s14.3,12.5,7.1,26.8s-27.4,23.3-28.6,14.9
		C577.6,305.9,585.5,288.7,585.5,288.8L585.5,288.8z"/>
        <path class="st2" d="M633.8,264.2c0,0-31,0.6-49.5-1.2s-4.7,14,3.3,14.8c9.6,1.2,19.3,1.6,28.9,1.3c7.1-0.3,14.2,1,20.8,3.6
		C637.4,282.7,647.5,271.4,633.8,264.2L633.8,264.2z"/>
        <path class="st2" d="M614.7,321.5c-5.9-7.2-11.1-15-15.5-23.3c-6-11.9-7.7-17.3,3.6-16.1c11.3,1.2,16.1,11.9,19.1,20.9
		c3,8.9,10.1,8.9,10.1,8.9l10.1-29.2l20.3,17.9L644,363.1c0,0-25-12.5-28.6-17.9C611.8,339.9,615.3,326.2,614.7,321.5L614.7,321.5z"
        />
        <path class="st2" d="M670.8,283.3c0,0-1.8-9.5-10.1-11.3c-8.3-1.8-22.7-11.9-27.4-10.1s-13.7,30.4-13.7,35.1s5.4,9.5,7.2,9.5
		s17.3-27.4,17.3-27.4L670.8,283.3L670.8,283.3z"/>
        <path class="st2" d="M671.4,290.4c0,0,3-6.5,0-9.5s-22.1-9-28.6-10.1s-7.7,1.2-11.3,10.1s-11.3,21.5-7.7,24.4s8.3,6.5,8.3,6.5
		l12.5-25.6L671.4,290.4L671.4,290.4z"/>
        <path class="st2" d="M642.1,319.6c0,0-11.9-4.7-13.7-8.4c-1.8-3.7,10.1-33.4,11.9-34s9.5,1.8,11.9,3s20.9,4.2,22.1,11.9
		s-11.3,51.9-10.1,56.6s10.7,10.1,10.7,10.1l-14.3,24.4c0,0-22.7-19.6-31-23.8s3-17.9,6-25S642.1,319.7,642.1,319.6L642.1,319.6z"/>
        <line class="st5" x1="642.1" y1="319.6" x2="650.5" y2="304.1"/>
        <line class="st5" x1="644.5" y1="303.6" x2="655.8" y2="304.8"/>
        <polygon class="st15" points="671.4,353.6 647.5,378 670.2,398.3 692.2,365.5 	"/>
        <path class="st6" d="M817.5,493.6c-4.7-1.2-100.8-50.6-112.2-57.8c-11.3-7.2-38.2-23.2-38.2-31.6s23.3-42.3,23.3-42.3
		s6-8.9,15.5-3.6c9.5,5.4,98.5,61.9,121.1,73.9c22.7,11.9,39.9,20.9,41.1,44.1s-18.5,27.4-31.6,25.7"/>
        <path class="st7" d="M797.7,458.5c-32-6.2-88.2-24.1-101.5-28.5c3.5,2.3,6.7,4.2,9.2,5.8c11.3,7.2,107.4,56.6,112.2,57.8l19.1,8.4
		c13.1,1.8,32.8-2.3,31.6-25.7S849.7,444,827,432.1c-13.4-7-50.2-29.9-79.9-48.3c35.2,25.1,85.7,62,87,68.6
		C836.2,462.6,834.2,465.6,797.7,458.5L797.7,458.5z"/>
        <path class="st5" d="M817.5,493.6c-4.7-1.2-100.8-50.6-112.2-57.8c-11.3-7.2-38.2-23.2-38.2-31.6s23.3-42.3,23.3-42.3
		s6-8.9,15.5-3.6c9.5,5.4,98.5,61.9,121.1,73.9c22.7,11.9,39.9,20.9,41.1,44.1s-18.5,27.4-31.6,25.7"/>
        <path class="st6" d="M269.6,566.4c8.9-1.9,18.1,0.1,25.5,5.4c13.4,9.1,46.2,28.1,73.6,37.7c27.4,9.6,31.6,10.3,28.1,27.4
		c-3.5,17-15.8,41.4-27.4,44.5s-35.3-14.6-71.8-34.1c-36.5-19.5-69.4-31-73-45.6s12.2-39.5,12.2-39.5"/>
        <path class="st10" d="M368.7,609.6l-3.2-1.2l20.6,12.4c0,0-23.2,0-26.5,17.7s7.7,27.6,1.1,29.8s-95-39.8-95-39.8l2.9,4.1
		c9,4.4,18.9,9.2,29,14.6c36.5,19.5,60.2,37.1,71.8,34.1s23.7-27.4,27.4-44.5S396,619.4,368.7,609.6L368.7,609.6z"/>
        <path class="st5" d="M269.6,566.4c8.9-1.9,18.1,0.1,25.5,5.4c13.4,9.1,46.2,28.1,73.6,37.7c27.4,9.6,31.6,10.3,28.1,27.4
		c-3.5,17-15.8,41.4-27.4,44.5s-35.3-14.6-71.8-34.1c-36.5-19.5-69.4-31-73-45.6s12.2-39.5,12.2-39.5"/>
        <path class="st2" d="M530.5,626.7c0,0,12.8,2.3,21.9,0s9.7,2.3,5.5,10.3s-14.6,11.6-21.3,11S519.5,633.3,530.5,626.7L530.5,626.7z"
        />
        <path class="st2" d="M417.4,649.2c0,0,15.8-3.7,21.9-7.9s54.1-36.5,60.2-36.5s46.8,31.6,47.4,34.1s-11.5,17.6-15.2,20.7
		c-3.7,3-18.2,21.3-21.9,24.9s-17.6,10.3-21.9,11.6s-10.3-2.3-9.1-6.7s2.3-7.9,2.3-7.9s-23.1,11.6-35.3,8.5s-40.8-17.6-40.8-17.6
		L417.4,649.2L417.4,649.2z"/>
        <path class="st2" d="M481.2,651.6c0,0,29.2,25.5,28.6,32.8"/>
        <line class="st5" x1="489.1" y1="631.5" x2="523.2" y2="667.4"/>
        <line class="st5" x1="500.7" y1="614.5" x2="536" y2="653.4"/>
        <path class="st2" d="M481.2,681.4c0,0,10.3-3.7,9.1,2.3"/>
        <path class="st15" d="M388.8,632.1l32.8,13.4l-17,38.3L371.7,668C371.7,668,370.5,644.9,388.8,632.1L388.8,632.1z"/>
</g>
</svg>
