<?xml version="1.0" encoding="UTF-8"?><svg id="Livello_3" xmlns="http://www.w3.org/2000/svg" xmlns:xlink="http://www.w3.org/1999/xlink" viewBox="0 0 1000 1000"><defs><radialGradient id="Sfumatura_senza_nome_25" cx="167.05" cy="450.92" fx="167.05" fy="450.92" r="155.14" gradientUnits="userSpaceOnUse"><stop offset="0" stop-color="#eea789"/><stop offset="1" stop-color="#de4e12"/></radialGradient><radialGradient id="Sfumatura_senza_nome_78" cx="455.27" cy="145.86" fx="455.27" fy="145.86" r="77.87" gradientUnits="userSpaceOnUse"><stop offset="0" stop-color="#fcf4cd"/><stop offset="1" stop-color="#81c2c1"/></radialGradient></defs><rect x="5" y="981.56" width="990" height="10.52" fill="#090097" stroke="#090097" stroke-linecap="round" stroke-linejoin="round"/><path d="M842.56,268.04c-27.02-105.58-197.75-185.55-289.98-141-72.35,34.95-45.16,121.78-122.71,167.27-98.29,57.65-198.49-48.69-289.64,10.97-58.88,38.54-76.17,121.6-71.83,178.24,7.27,94.76,77.94,152.68,94.11,165.94,126.3,103.51,235.69,4.84,412.02,100.76,96.37,52.42,119.01,110.76,188.22,103.09,62.46-6.92,128.38-62.91,133.02-122.38,6.14-78.67-100.16-95.64-121.96-196.6-24.56-113.72,94.11-167.21,68.75-266.29Z" fill="#eff6ff"/><path d="M920.77,526.9c-5.52-3.02-8.08-.5-10.09-3.02s5.52-9.08-9.59-15.65c0,0-1.01-14.12-21.69-14.62s-15.15,14.12-20.69,17.65-7.07-2.03-12.61,1.51c-5.54,3.53-3.02,10.59-7.57,11.6-4.55,1.01-10.6-4.53-16.14-1.01-5.54,3.52-5.52,6.57-8.06,6.57s-7.57-2.03-10.6,0-6.55,4.53-6.55,4.53h127.63s1.51-4.53-4.03-7.57Z" fill="none" isolation="isolate" stroke="#5da5fc" stroke-miterlimit="10"/><path d="M771.91,301.41c-8.66-4.72-12.57-.79-15.72-4.72-3.15-3.94,8.64-14.06-14.97-24.42,0,0-1.55-22.02-33.8-22.78s-23.59,22.02-32.25,27.53c-8.66,5.51-11-3.15-19.66,2.36-8.66,5.51-4.72,16.57-11.78,18.08-7.06,1.51-16.57-7.08-25.16-1.57-8.6,5.51-8.66,10.23-12.59,10.23s-11.78-3.15-16.57,0c-4.78,3.15-10.21,7.06-10.21,7.06h198.93s2.44-7.04-6.21-11.76Z" fill="none" isolation="isolate" stroke="#5da5fc" stroke-miterlimit="10"/><path d="M323.72,122.79c-12.35-6.75-17.97-1.13-22.45-6.75s12.35-20.21-21.34-34.82c0,0-2.24-31.45-48.22-32.56-45.98-1.11-33.69,31.45-46.12,39.31s-15.72-4.49-28.07,3.38c-12.35,7.86-6.75,23.59-16.77,25.83-10.02,2.24-23.59-10.1-35.93-2.24-12.35,7.86-12.37,14.68-17.99,14.68s-16.77-4.49-23.59,0c-6.81,4.49-14.68,10.1-14.68,10.1H332.71s3.38-10.19-8.99-16.92Z" fill="#fff" isolation="isolate" stroke="#5da5fc" stroke-miterlimit="10"/><g><rect x="299.28" y="350.76" width="258.46" height="629.61" fill="#2949fa"/><rect x="438.44" y="350.76" width="119.3" height="629.61" fill="#090097"/></g><circle cx="224.96" cy="518.67" r="113.15" fill="url(#Sfumatura_senza_nome_25)"/><circle cx="484.33" cy="179.86" r="56.79" fill="url(#Sfumatura_senza_nome_78)"/><g><rect x="410.93" y="234.46" width="146.82" height="116.3" fill="#c2cde4"/><rect x="496.9" y="234.46" width="60.84" height="116.3" fill="#6781bb"/></g><g><rect x="381.68" y="627.71" width="242.75" height="141.56" fill="#f9e89c"/><rect x="550.59" y="627.71" width="73.83" height="141.56" fill="#eb9571"/></g><g><polygon points="624.42 627.71 497.37 436.98 426.34 436.98 426.34 627.71 624.42 627.71" fill="#81c2c1"/><polygon points="426.35 436.98 299.28 627.71 553.4 627.71 426.35 436.98" fill="#c0e0e0"/></g><g><rect x="48.56" y="627.71" width="333.12" height="353.04" fill="#cae1fe"/><rect x="254.77" y="627.71" width="126.91" height="353.04" fill="#6781bb"/></g><g><path d="M298.96,283.88s3.39,7.38,14.12,8.79c16.59,2.19,28.54-13.87,29.68-28.29,1.14-14.42-.29-27.97-.29-35.04s-1.9-21.74-5.36-25.99c-3.46-4.24-10.73,3.1-16.11,14.4-5.38,11.3-7.61,17.52-13.85,27.41-6.24,9.89-10.16,16.68-10.73,24.03-.19,5.02,.68,10.02,2.55,14.69Z" fill="#090097" stroke="#090097" stroke-linecap="round" stroke-linejoin="round"/><path d="M263.88,403.76s-17.42-1.28-20.28-2.23-1.79,2.52,2.8,7.02,18.02,8.82,20.45,7.4c2.43-1.42,1.66-10.97,1.66-10.97l-4.63-1.22Z" fill="#fff" stroke="#090097" stroke-linecap="round" stroke-linejoin="round"/><path d="M261.02,408.38l-1.05-4.92c-5.49-.33-10.96-.98-16.38-1.93-2.78-.98-1.79,2.52,2.8,7.02,4.59,4.5,18.02,8.82,20.45,7.4,1.33-.78,1.74-2.69,1.76-5.85-3.52-.63-7.59-1.71-7.59-1.71Z" fill="#fff" stroke="#090097" stroke-linecap="round" stroke-linejoin="round"/><path d="M286.32,339.18s-20.78,36.57-25.55,41.95c-4.77,5.38-8.1,8.6-8.1,8.6-6.23-.1-12.46-.51-18.65-1.24-6.09-1-10.64-1.04-8.4,3.54,2.24,4.59,20.43,11.83,25.1,12.73s4.73-.84,6.25-2.45c1.52-1.61,7-10.77,11.74-16.44,4.74-5.67,18.62-16.11,23.04-29.5,4.42-13.38,4.09-20.97,1.04-20.33-2.32,.68-4.5,1.73-6.47,3.13Z" fill="#fff" stroke="#090097" stroke-linecap="round" stroke-linejoin="round"/><path d="M292.8,336.15c-2.31,.65-4.5,1.67-6.48,3.03,0,0-20.78,36.57-25.55,41.95-2.5,2.84-4.6,5.06-6.05,6.45,3.37,.79,6.5,2.4,9.11,4.69,1.65-2.3,3.29-4.62,4.87-6.52,4.76-5.67,18.62-16.11,23.04-29.5,4.42-13.38,4.12-20.74,1.07-20.1Z" fill="#090097" stroke="#090097" stroke-linecap="round" stroke-linejoin="round"/><path d="M348.04,316.92s-42.65,10.08-51.4,13.09c-8.75,3.01-11.55,5.9-12.14,8.25-.59,2.35-21.09,65.66-21.09,65.66,0,0,.29,2.53,3.76,2.97,0,0,22.1-30.15,26.96-37.27,4.86-7.12,8.87-19.25,8.87-19.25,0,0,44.54,4.2,60.08-4.43,15.54-8.63,14.74-22.48,13.84-25.23-.89-2.75-28.88-3.8-28.88-3.8Z" fill="#090097" stroke="#090097" stroke-linecap="round" stroke-linejoin="round"/><path d="M340.77,240.38c2.36,3.66,4.53,7.43,6.51,11.3,1.12,2.83-4.81,17.81-3.96,23.17s11.02,18.64,11.02,22.83-7.91,19.21-7.91,19.21l33.35,8.2s1.9-25.44,1.9-40.41-11.59-35.33-18.09-40.69c-6.51-5.36-12.99-12.16-12.99-12.16l-9.82,8.54Z" fill="#fff" stroke="#090097" stroke-linecap="round" stroke-linejoin="round"/><path d="M338.7,198.45c-4.58-2.68-10.4-1.97-14.19,1.75-2.59,2.44-5.44,5.97-5.44,9.66,.31,8.95,3.67,17.52,9.51,24.29,6.51,7.06,13.85,9.04,18.66,7.06s5.94-11.87,2.53-22.83c-3.41-10.96-5.71-16.38-11.02-19.79l-.06-.15Z" fill="#fff" stroke="#090097" stroke-linecap="round" stroke-linejoin="round"/><path d="M335.98,205.9s7.06,7.34,10.16,8.75,3.41-2.26,2.83-8.48-7.91-12.42-11.87-12.42-3.39,6.77-1.12,12.16Z" fill="#090097" stroke="#090097" stroke-linecap="round" stroke-linejoin="round"/><path d="M337.1,203.35c-1.06,7.74-4.52,14.95-9.89,20.62-9.04,9.51-23.46,26.29-26.84,35.61-2.92,7.77-3.41,16.24-1.41,24.29-4.21-6.78-5.04-15.12-2.26-22.6,4.51-13.32,13.32-27.13,13.85-39,.53-11.87,1.69-26.63,11.87-31.37,10.18-4.74,15.54,2.55,14.69,12.44Z" fill="#090097" stroke="#090097" stroke-linecap="round" stroke-linejoin="round"/><path d="M333.87,202.88s3.67,6.18-7.31,17.84c-10.98,11.66-21.02,21.48-21.02,21.48" fill="none" stroke="#fff" stroke-linecap="round" stroke-linejoin="round" stroke-width=".5"/><path d="M302.88,285.63c.94,.87,1.99,1.63,3.12,2.24" fill="none" stroke="#fff" stroke-linecap="round" stroke-linejoin="round" stroke-width=".5"/><path d="M323.59,231.42s-16.46,16.23-22.83,27.2c-4.68,8.03-4.58,17.29-.61,23.65" fill="none" stroke="#fff" stroke-linecap="round" stroke-linejoin="round" stroke-width=".5"/><path d="M313.84,219.11c-.77,.23-1.56,.37-2.36,.42" fill="none" stroke="#fff" stroke-linecap="round" stroke-linejoin="round" stroke-width=".5"/><path d="M331.09,195.54s-4.64,16.21-13.81,21.99" fill="none" stroke="#fff" stroke-linecap="round" stroke-linejoin="round" stroke-width=".5"/><path d="M363.66,244.05c-2.55-2.11-5.1-4.43-7.27-6.49-2.81,4.33-6.45,8.06-10.73,10.96,.6,1.02,1.14,2.08,1.62,3.16,1.12,2.83-4.81,17.81-3.96,23.17s11.02,18.64,11.02,22.83-7.91,19.21-7.91,19.21l33.35,8.2s1.9-25.44,1.9-40.41-11.51-35.27-18.02-40.64Z" fill="#2949fa" stroke="#090097" stroke-linecap="round" stroke-linejoin="round"/><path d="M353.5,251.68s-6.51,3.96-1.43,14.13,18.38,28.25,18.38,28.25c0,0-18.38,14.71-22.05,17.81-2.98,2.35-6.46,3.99-10.18,4.79-.84,0-9.61-1.69-11.02-1.41-1.41,.29-7.34,3.67-5.71,4.24,2.35,.23,4.73,.14,7.06-.29,2.67,1.31,5.54,2.17,8.48,2.55,3.96,.29,9.04-2.83,9.04-2.83,0,0,38.71-19.21,41.55-22.32,2.83-3.1-18.66-42.96-21.19-45.79-1.56-1.69-3.66-2.79-5.94-3.1" fill="#2949fa" stroke="#090097" stroke-linecap="round" stroke-linejoin="round"/><path d="M342.77,315.22c-1.45,.68-2.97,1.17-4.55,1.45-.84,0-9.61-1.69-11.02-1.41-1.41,.29-7.34,3.67-5.71,4.24,2.35,.23,4.73,.14,7.06-.29,2.67,1.31,5.54,2.17,8.48,2.55,2.86-.09,5.66-.89,8.14-2.32l-2.42-4.22Z" fill="#fff" stroke="#090097" stroke-linecap="round" stroke-linejoin="round"/><path d="M234.04,388.57c-6.09-1-10.64-1.04-8.4,3.54,2.24,4.59,20.43,11.83,25.1,12.73,4.66,.89,4.73-.84,6.25-2.45,1.32-1.66,2.54-3.4,3.67-5.2l-10.42-3.98,2.46-3.41c-6.23-.1-12.46-.51-18.65-1.24Z" fill="#fff" stroke="#090097" stroke-linecap="round" stroke-linejoin="round"/><path d="M254.92,404.3c-5.19-3.11-10.33-6.46-20.5-11.56-2.89-1.55-5.9-2.86-9.01-3.89-.6,.64-.65,1.65,.13,3.22,2.24,4.57,20.43,11.83,25.1,12.73,1.45,.49,3.05,.36,4.4-.38l-.11-.12Z" fill="#090097" stroke="#090097" stroke-linecap="round" stroke-linejoin="round"/></g><g><rect x="327.12" y="769.26" width="359.9" height="211.49" fill="#5da5fc"/><rect x="550.59" y="769.26" width="136.43" height="211.49" fill="#2949fa"/></g><g><path d="M758.58,786.94l-64.85-10.5s-3.65-8.08-5.52-9.95c-1.87-1.87-12.76-1.24-12.76-1.24,0,0-2.1,1.24,.94,2.79,3.04,1.55,5.29,1.11,5.92,2.1,.63,.99,3.36,11.61,5.84,12.6,1.91,.6,3.9,.91,5.9,.92,0,0,67.03,25.44,70.43,24.84s5.58-9.32,5.58-9.32l-11.48-12.24Z" fill="#fff" stroke="#090097" stroke-linecap="round" stroke-linejoin="round"/><path d="M686.68,775.43s-4.37-5.4-5.67-5.4-1.28,2.1-.25,3.09c1.53,1.98,2.83,4.14,3.86,6.42,1.28,2.58,6.17,3.09,6.17,3.09" fill="#fff" stroke="#090097" stroke-linecap="round" stroke-linejoin="round"/><path d="M789.95,763.03l-35.68,22.75,12.6,26.68,34.21-22.12s5.94-21.41-11.13-27.31Z" fill="#fff" stroke="#090097" stroke-linecap="round" stroke-linejoin="round"/><polygon points="774.41 761.18 787.45 762.1 790.87 745.96 778.15 741.93 765.43 745.04 767.9 755.28 774.41 761.18" fill="#fff" stroke="#090097" stroke-linecap="round" stroke-linejoin="round"/><path d="M741.18,739.03c-6.78-12.32,1.77-36.14,21.84-36.14s33.18,23.3,32.81,28.6c-.37,5.3-10.39,15.12-13.79,13.57-3.4-1.55-4.95-2.61-6.07-3.12s-.29,3.61-4.73,3.63-9.1-2.45-11.76-2.65-11.51,8.43-18.29-3.89Z" fill="#090097" stroke="#090097" stroke-linecap="round" stroke-linejoin="round"/><path d="M748.27,733.05l-2,10.14,6.71,6.65,1.28,9.37,5.76,.33s9.71,6.75,13.32,7.04c3.61,.29,7.95-13.85,7.95-13.85,0,0-3.05-7.49-4.21-10.19,0,0,2.06-6.46-2.04-8.19-3.06-1.29-4.39,4.58-4.39,4.58,0,0-5.8,.42-6.54-.93-.74-1.35-15.85-4.94-15.85-4.94Z" fill="#fff" stroke="#090097" stroke-linecap="round" stroke-linejoin="round"/><path d="M789.32,743.48s-6.51,20.8-7.77,24.52c-1.26,3.72,2.5,12.11,2.5,12.11l13.12-34.16-7.85-2.48Z" fill="#fff" stroke="#090097" stroke-linecap="round" stroke-linejoin="round"/><path d="M815.33,837.07l-2.33,12.6s-14.97,23.39-23.85,41.17c-8.88,17.78-4.2,23.85-3.76,26.18,.44,2.33,66.91,50.07,66.91,50.07h11.69l-50.03-58.51,34.14-43.5s20.99,47.26,26.66,52.86c5.67,5.61,56.14,46.31,56.14,46.31l10.29,1.41-43.98-69.68s-18.24-58.95-26.2-68.77c-7.96-9.82-11.23-14.02-11.23-14.02l-44.44,23.89Z" fill="#090097" stroke="#090097" stroke-linecap="round" stroke-linejoin="round"/><line x1="825.76" y1="853.89" x2="848.08" y2="865.14" fill="none" stroke="#fff" stroke-linecap="round" stroke-linejoin="round" stroke-width=".5"/><path d="M794.9,748.75s-9.3,23.91-10.5,29.5c-1.2,5.58-.61,13.04,3.11,22.02s18.31,24.21,20.8,27.63c2.5,3.42,1.24,8.4,6.51,11.17,5.27,2.77,17.57,.67,25.99-3.55,6.59-3.3,18.71-15.68,19.02-19.71,.31-4.03-17.38-25.76-26.7-40.98-9.32-15.22-13.96-22.02-22.34-26.37-8.38-4.35-13.62-2.5-15.89,.29Z" fill="#fff" stroke="#090097" stroke-linecap="round" stroke-linejoin="round"/><path d="M761.48,791.28s-76.98-7.45-80.38-8.08-9.34-11.67-10.29-12.91c-.94-1.24-10.5-4.64-12.09-4.64s-7.87,1.03-5.4,2.58c2.93,2.26,5.69,4.76,8.23,7.45,2.95,3.48,6.16,6.72,9.61,9.7,2.75,1.76,5.75,3.09,8.9,3.95,0,0,82.34,20.87,86.07,19.63,3.74-1.24-3.4-17.99-3.4-17.99l-1.26,.31Z" fill="#fff" stroke="#090097" stroke-linecap="round" stroke-linejoin="round"/><path d="M791.72,766.41c-4.95,4.64-33.08,23.32-33.08,23.32l9.01,25.76,50.28-38.19s5.58-8.4,.92-15.51" fill="#fff" stroke="#090097" stroke-linecap="round" stroke-linejoin="round"/><path d="M852.3,967.12l-7.96,7.01s-11.23,2.33-10.77,5.61,17.78,1.41,20.99,1.41,13.1-3.27,14.51-6.55-5.14-7.47-5.14-7.47h-11.63Z" fill="#fff" stroke="#090097" stroke-linecap="round" stroke-linejoin="round"/><path d="M930.88,964.31l-3.74,10.29s-10.77,4.68-9.82,7.49,22.9,1.39,24.79-.94c1.89-2.33-.94-15.43-.94-15.43l-10.29-1.41Z" fill="#fff" stroke="#090097" stroke-linecap="round" stroke-linejoin="round"/><path d="M766.17,763.03s3.08-1.55,3.08-3.99" fill="none" stroke="#090097" stroke-linecap="round" stroke-linejoin="round"/></g><g><rect x="614.11" y="890.13" width="124.77" height="90.62" fill="#d1d9ea"/><rect x="687.18" y="890.13" width="51.71" height="90.62" fill="#b3c0dd"/></g></svg>