<svg width="60" height="60" viewBox="0 0 60 60" fill="none" xmlns="http://www.w3.org/2000/svg">
<path d="M11 17.8571C11 15.1781 13.1781 13 15.8571 13H45C47.679 13 49.8571 15.1781 49.8571 17.8571V31.8518C48.567 30.6982 46.867 30 45 30H15.8571C13.9902 30 12.2902 30.6982 11 31.8518V17.8571ZM15.8571 32.4286H45C47.679 32.4286 49.8571 34.6067 49.8571 37.2857V42.1429C49.8571 44.8219 47.679 47 45 47H15.8571C13.1781 47 11 44.8219 11 42.1429V37.2857C11 34.6067 13.1781 32.4286 15.8571 32.4286ZM35.2857 42.1429C36.629 42.1429 37.7143 41.0576 37.7143 39.7143C37.7143 38.371 36.629 37.2857 35.2857 37.2857C33.9424 37.2857 32.8571 38.371 32.8571 39.7143C32.8571 41.0576 33.9424 42.1429 35.2857 42.1429ZM45 39.7143C45 38.371 43.9147 37.2857 42.5714 37.2857C41.2281 37.2857 40.1429 38.371 40.1429 39.7143C40.1429 41.0576 41.2281 42.1429 42.5714 42.1429C43.9147 42.1429 45 41.0576 45 39.7143Z" fill="#F1F5F9"/>
</svg>
