<svg width="60" height="60" viewBox="0 0 60 60" fill="none" xmlns="http://www.w3.org/2000/svg">
<path d="M51 30C51 41.5992 41.5992 51 30 51C18.4008 51 9 41.5992 9 30C9 18.4008 18.4008 9 30 9C41.5992 9 51 18.4008 51 30ZM32.625 16.875C32.625 15.423 31.452 14.25 30 14.25C28.548 14.25 27.375 15.423 27.375 16.875C27.375 18.327 28.548 19.5 30 19.5C31.452 19.5 32.625 18.327 32.625 16.875ZM30 43.125C32.8957 43.125 35.25 40.7707 35.25 37.875C35.25 37.5715 35.2254 37.2762 35.1762 36.9891L44.8148 31.0172C45.7418 30.443 46.0207 29.2289 45.4547 28.3102C44.8887 27.3914 43.6664 27.0961 42.7477 27.6703L33.1008 33.6422C32.2312 33.0023 31.1566 32.625 30 32.625C27.1043 32.625 24.75 34.9793 24.75 37.875C24.75 40.7707 27.1043 43.125 30 43.125ZM23.4375 20.8125C23.4375 19.3605 22.2645 18.1875 20.8125 18.1875C19.3605 18.1875 18.1875 19.3605 18.1875 20.8125C18.1875 22.2645 19.3605 23.4375 20.8125 23.4375C22.2645 23.4375 23.4375 22.2645 23.4375 20.8125ZM16.875 32.625C18.327 32.625 19.5 31.452 19.5 30C19.5 28.548 18.327 27.375 16.875 27.375C15.423 27.375 14.25 28.548 14.25 30C14.25 31.452 15.423 32.625 16.875 32.625ZM41.8125 20.8125C41.8125 19.3605 40.6395 18.1875 39.1875 18.1875C37.7355 18.1875 36.5625 19.3605 36.5625 20.8125C36.5625 22.2645 37.7355 23.4375 39.1875 23.4375C40.6395 23.4375 41.8125 22.2645 41.8125 20.8125Z" fill="#F1F5F9"/>
</svg>
