<svg width="60" height="60" viewBox="0 0 60 60" fill="none" xmlns="http://www.w3.org/2000/svg">
<path d="M23.4375 10.9688C23.4375 9.87773 22.5598 9 21.4688 9C20.3777 9 19.5 9.87773 19.5 10.9688V14.25C16.6043 14.25 14.25 16.6043 14.25 19.5H10.9688C9.87773 19.5 9 20.3777 9 21.4688C9 22.5598 9.87773 23.4375 10.9688 23.4375H14.25V28.0312H10.9688C9.87773 28.0312 9 28.909 9 30C9 31.091 9.87773 31.9688 10.9688 31.9688H14.25V36.5625H10.9688C9.87773 36.5625 9 37.4402 9 38.5312C9 39.6223 9.87773 40.5 10.9688 40.5H14.25C14.25 43.3957 16.6043 45.75 19.5 45.75V49.0312C19.5 50.1223 20.3777 51 21.4688 51C22.5598 51 23.4375 50.1223 23.4375 49.0312V45.75H28.0312V49.0312C28.0312 50.1223 28.909 51 30 51C31.091 51 31.9688 50.1223 31.9688 49.0312V45.75H36.5625V49.0312C36.5625 50.1223 37.4402 51 38.5312 51C39.6223 51 40.5 50.1223 40.5 49.0312V45.75C43.3957 45.75 45.75 43.3957 45.75 40.5H49.0312C50.1223 40.5 51 39.6223 51 38.5312C51 37.4402 50.1223 36.5625 49.0312 36.5625H45.75V31.9688H49.0312C50.1223 31.9688 51 31.091 51 30C51 28.909 50.1223 28.0312 49.0312 28.0312H45.75V23.4375H49.0312C50.1223 23.4375 51 22.5598 51 21.4688C51 20.3777 50.1223 19.5 49.0312 19.5H45.75C45.75 16.6043 43.3957 14.25 40.5 14.25V10.9688C40.5 9.87773 39.6223 9 38.5312 9C37.4402 9 36.5625 9.87773 36.5625 10.9688V14.25H31.9688V10.9688C31.9688 9.87773 31.091 9 30 9C28.909 9 28.0312 9.87773 28.0312 10.9688V14.25H23.4375V10.9688ZM22.125 19.5H37.875C39.327 19.5 40.5 20.673 40.5 22.125V37.875C40.5 39.327 39.327 40.5 37.875 40.5H22.125C20.673 40.5 19.5 39.327 19.5 37.875V22.125C19.5 20.673 20.673 19.5 22.125 19.5ZM37.875 22.125H22.125V37.875H37.875V22.125Z" fill="#F1F5F9"/>
</svg>
