<svg width="60" height="60" viewBox="0 0 60 60" fill="none" xmlns="http://www.w3.org/2000/svg">
<path d="M41.4286 27.1429C46.1607 27.1429 50 23.3036 50 18.5714C50 13.8393 46.1607 10 41.4286 10C36.6964 10 32.8571 13.8393 32.8571 18.5714C32.8571 18.9286 32.875 19.2857 32.9196 19.6339L24.5179 23.8304C22.9821 22.3393 20.8839 21.4286 18.5714 21.4286C13.8393 21.4286 10 25.2679 10 30C10 34.7321 13.8393 38.5714 18.5714 38.5714C20.8839 38.5714 22.9821 37.6607 24.5179 36.1696L32.9196 40.3661C32.875 40.7143 32.8571 41.0625 32.8571 41.4286C32.8571 46.1607 36.6964 50 41.4286 50C46.1607 50 50 46.1607 50 41.4286C50 36.6964 46.1607 32.8571 41.4286 32.8571C39.1161 32.8571 37.0179 33.7679 35.4821 35.2589L27.0804 31.0625C27.125 30.7143 27.1429 30.3661 27.1429 30C27.1429 29.6339 27.125 29.2857 27.0804 28.9375L35.4821 24.7411C37.0179 26.2321 39.1161 27.1429 41.4286 27.1429Z" fill="#F1F5F9"/>
</svg>
