<svg width="60" height="60" viewBox="0 0 60 60" fill="none" xmlns="http://www.w3.org/2000/svg">
<path d="M28.2363 9.30762C29.3766 8.89746 30.6234 8.89746 31.7719 9.30762L47.5219 14.935C49.6055 15.6814 51 17.6584 51 19.8814V39.7986C51 42.0135 49.6055 43.9986 47.5137 44.7451L31.7637 50.3725C30.6234 50.7826 29.3766 50.7826 28.2281 50.3725L12.4781 44.7451C10.3945 43.9986 9 42.0217 9 39.7986V19.8814C9 17.6666 10.3945 15.6814 12.4863 14.935L28.2363 9.30762V9.30762ZM30 14.2541L15.7512 19.34L30 24.426L44.2488 19.34L30 14.2541ZM32.625 44.4908L45.75 39.8068V24.385L32.625 29.0689V44.4908Z" fill="#F1F5F9"/>
</svg>
