<svg width="60" height="60" viewBox="0 0 60 60" fill="none" xmlns="http://www.w3.org/2000/svg">
<path d="M9.66667 13C6.54115 13 4 15.5411 4 18.6667V19.3219C4 19.924 4.38958 20.4375 4.89427 20.7651C6.06302 21.5266 6.83333 22.837 6.83333 24.3333C6.83333 25.8297 6.06302 27.1401 4.89427 27.9016C4.38958 28.2292 4 28.7427 4 29.3448V35.6667H55V29.3448C55 28.7427 54.6104 28.2292 54.1057 27.9016C52.937 27.1401 52.1667 25.8297 52.1667 24.3333C52.1667 22.837 52.937 21.5266 54.1057 20.7651C54.6104 20.4375 55 19.924 55 19.3219V18.6667C55 15.5411 52.4589 13 49.3333 13H9.66667ZM55 38.5H4V44.1667C4 45.7339 5.26615 47 6.83333 47H11.0833V44.1667C11.0833 43.3875 11.7208 42.75 12.5 42.75C13.2792 42.75 13.9167 43.3875 13.9167 44.1667V47H22.4167V44.1667C22.4167 43.3875 23.0542 42.75 23.8333 42.75C24.6125 42.75 25.25 43.3875 25.25 44.1667V47H33.75V44.1667C33.75 43.3875 34.3875 42.75 35.1667 42.75C35.9458 42.75 36.5833 43.3875 36.5833 44.1667V47H45.0833V44.1667C45.0833 43.3875 45.7208 42.75 46.5 42.75C47.2792 42.75 47.9167 43.3875 47.9167 44.1667V47H52.1667C53.7339 47 55 45.7339 55 44.1667V38.5ZM21 21.5V27.1667C21 28.7339 19.7339 30 18.1667 30C16.5995 30 15.3333 28.7339 15.3333 27.1667V21.5C15.3333 19.9328 16.5995 18.6667 18.1667 18.6667C19.7339 18.6667 21 19.9328 21 21.5ZM32.3333 21.5V27.1667C32.3333 28.7339 31.0672 30 29.5 30C27.9328 30 26.6667 28.7339 26.6667 27.1667V21.5C26.6667 19.9328 27.9328 18.6667 29.5 18.6667C31.0672 18.6667 32.3333 19.9328 32.3333 21.5ZM43.6667 21.5V27.1667C43.6667 28.7339 42.4005 30 40.8333 30C39.2661 30 38 28.7339 38 27.1667V21.5C38 19.9328 39.2661 18.6667 40.8333 18.6667C42.4005 18.6667 43.6667 19.9328 43.6667 21.5Z" fill="#F1F5F9"/>
</svg>
