<svg width="60" height="60" viewBox="0 0 60 60" fill="none" xmlns="http://www.w3.org/2000/svg">
<path fill-rule="evenodd" clip-rule="evenodd" d="M9.09347 27.4254C9.02342 27.9984 9.31797 28.5493 9.81787 28.838L15.2298 31.963C16.2298 32.5404 17.4799 31.8187 17.4799 30.664V16.0635C17.4799 14.8327 16.099 14.1563 15.2211 15.0189C11.9189 18.2629 9.68454 22.5903 9.09347 27.4254ZM21.7469 10.6571C21.2151 10.8826 20.8853 11.4132 20.8853 11.9908V18.2654C20.8853 19.4201 22.1353 20.1418 23.1353 19.5645C27.3664 17.1219 31.5852 14.6864 35.8126 12.2459C36.8769 11.6314 36.7746 10.0999 35.5908 9.76978C33.792 9.26817 31.8959 9 29.9372 9C27.0315 9 24.2636 9.59015 21.7469 10.6571ZM42.6095 13.253C42.1481 12.9033 41.5219 12.8821 41.0205 13.1715L35.6146 16.2923C34.6146 16.8696 34.6145 18.313 35.6145 18.8904L48.2417 26.1817C49.3064 26.7965 50.5822 25.941 50.2757 24.7504C49.0786 20.0988 46.3278 16.071 42.6095 13.253ZM50.781 32.5746C50.851 32.0016 50.5565 31.4507 50.0566 31.162L44.6446 28.037C43.6446 27.4596 42.3945 28.1813 42.3945 29.336C42.3945 34.2029 42.3945 39.0696 42.3945 43.9365C42.3945 45.1673 43.7754 45.8437 44.6534 44.9811C47.9555 41.7371 50.1899 37.4097 50.781 32.5746ZM38.1276 49.3429C38.6593 49.1174 38.9891 48.5868 38.9891 48.0092V41.7546C38.9891 40.5999 37.7392 39.8782 36.7392 40.4555C32.5209 42.8908 28.3041 45.3252 24.0849 47.7609C23.02 48.3757 23.1233 49.9082 24.3082 50.237C26.0996 50.7343 27.9874 51 29.9372 51C32.8429 51 35.6108 50.4098 38.1276 49.3429ZM18.869 46.84C18.3681 47.1292 17.7425 47.1082 17.2812 46.7593C13.5546 43.9407 10.7976 39.9079 9.59871 35.2496C9.29229 34.059 10.568 33.2035 11.6327 33.8183C15.8478 36.2522 20.0619 38.6855 24.2774 41.1197C25.2774 41.6971 25.2773 43.1404 24.2773 43.7177L18.869 46.84ZM29.1827 40.0198C29.6468 40.2877 30.2186 40.2878 30.6827 40.0198L38.2391 35.6575C38.7032 35.3895 38.9891 34.8943 38.9891 34.3584V25.6373C38.9891 25.1015 38.7033 24.6063 38.2392 24.3384L30.7091 19.9903C30.245 19.7223 29.6732 19.7223 29.2091 19.9902L21.6354 24.3625C21.1712 24.6305 20.8853 25.1257 20.8853 25.6616V34.3627C20.8853 34.8985 21.1712 35.3937 21.6353 35.6617L29.1827 40.0198Z" fill="#F1F5F9"/>
</svg>
